<svg width="396" height="406" viewBox="0 0 396 406" fill="none" xmlns="http://www.w3.org/2000/svg">
<path d="M309 79.2734L197 145.773V287.773L309 218.273V79.2734Z" fill="#F7BE4D"/>
<path d="M78 79.2734L190 145.773V287.773L78 218.273V79.2734Z" fill="#C0E7EE"/>
<path d="M74.5 217.273V73.0347L191 5.77344L307.5 73.0347V217.273L195 288.773L74.5 217.273Z" stroke="white" stroke-width="10"/>
<path d="M76.5 74.7734L193.583 144.273L306.166 79.2734" stroke="white" stroke-width="10"/>
<path d="M194 141.273L195 289.273" stroke="white" stroke-width="10"/>
<path d="M5.92 329.153H20L35.76 373.873H35.92L51.28 329.153H65.2V386.273H55.68V342.193H55.52L39.68 386.273H31.44L15.6 342.193H15.44V386.273H5.92V329.153ZM108.134 377.073C108.134 378.193 108.267 378.993 108.534 379.473C108.854 379.953 109.44 380.193 110.294 380.193C110.56 380.193 110.88 380.193 111.254 380.193C111.627 380.193 112.054 380.14 112.534 380.033V386.353C112.214 386.46 111.787 386.567 111.254 386.673C110.774 386.833 110.267 386.967 109.734 387.073C109.2 387.18 108.667 387.26 108.134 387.313C107.6 387.367 107.147 387.393 106.774 387.393C104.907 387.393 103.36 387.02 102.134 386.273C100.907 385.527 100.107 384.22 99.7337 382.353C97.9204 384.113 95.6804 385.393 93.0138 386.193C90.4004 386.993 87.8671 387.393 85.4137 387.393C83.5471 387.393 81.7604 387.127 80.0537 386.593C78.3471 386.113 76.8271 385.393 75.4937 384.433C74.2137 383.42 73.1737 382.167 72.3737 380.673C71.6271 379.127 71.2537 377.34 71.2537 375.313C71.2537 372.753 71.7071 370.673 72.6137 369.073C73.5737 367.473 74.8004 366.22 76.2937 365.313C77.8404 364.407 79.5471 363.767 81.4137 363.393C83.3337 362.967 85.2537 362.647 87.1737 362.433C88.8271 362.113 90.4004 361.9 91.8938 361.793C93.3871 361.633 94.6937 361.393 95.8137 361.073C96.9871 360.753 97.8938 360.273 98.5338 359.633C99.2271 358.94 99.5737 357.927 99.5737 356.593C99.5737 355.42 99.2804 354.46 98.6938 353.713C98.1604 352.967 97.4671 352.407 96.6137 352.033C95.8137 351.607 94.9071 351.34 93.8938 351.233C92.8804 351.073 91.9204 350.993 91.0137 350.993C88.4537 350.993 86.3471 351.527 84.6937 352.593C83.0404 353.66 82.1071 355.313 81.8937 357.553H72.7737C72.9337 354.887 73.5737 352.673 74.6937 350.913C75.8137 349.153 77.2271 347.74 78.9337 346.673C80.6937 345.607 82.6671 344.86 84.8537 344.433C87.0404 344.007 89.2804 343.793 91.5737 343.793C93.6004 343.793 95.6004 344.007 97.5738 344.433C99.5471 344.86 101.307 345.553 102.854 346.513C104.454 347.473 105.734 348.727 106.694 350.273C107.654 351.767 108.134 353.607 108.134 355.793V377.073ZM99.0137 365.553C97.6271 366.46 95.9204 367.02 93.8938 367.233C91.8671 367.393 89.8404 367.66 87.8137 368.033C86.8537 368.193 85.9204 368.433 85.0137 368.753C84.1071 369.02 83.3071 369.42 82.6137 369.953C81.9204 370.433 81.3604 371.1 80.9337 371.953C80.5604 372.753 80.3737 373.74 80.3737 374.913C80.3737 375.927 80.6671 376.78 81.2537 377.473C81.8404 378.167 82.5337 378.727 83.3337 379.153C84.1871 379.527 85.0937 379.793 86.0537 379.953C87.0671 380.113 87.9737 380.193 88.7737 380.193C89.7871 380.193 90.8804 380.06 92.0538 379.793C93.2271 379.527 94.3204 379.073 95.3337 378.433C96.4004 377.793 97.2804 376.993 97.9738 376.033C98.6671 375.02 99.0137 373.793 99.0137 372.353V365.553ZM113.787 344.913H120.667V332.513H129.787V344.913H138.027V351.713H129.787V373.793C129.787 374.753 129.814 375.58 129.867 376.273C129.974 376.967 130.16 377.553 130.427 378.033C130.747 378.513 131.2 378.887 131.787 379.153C132.374 379.367 133.174 379.473 134.187 379.473C134.827 379.473 135.467 379.473 136.107 379.473C136.747 379.42 137.387 379.313 138.027 379.153V386.193C137.014 386.3 136.027 386.407 135.067 386.513C134.107 386.62 133.12 386.673 132.107 386.673C129.707 386.673 127.76 386.46 126.267 386.033C124.827 385.553 123.68 384.887 122.827 384.033C122.027 383.127 121.467 382.007 121.147 380.673C120.88 379.34 120.72 377.82 120.667 376.113V351.713H113.787V344.913ZM172.508 358.753C172.134 356.193 171.094 354.273 169.388 352.993C167.734 351.66 165.628 350.993 163.068 350.993C161.894 350.993 160.641 351.207 159.308 351.633C157.974 352.007 156.748 352.753 155.628 353.873C154.508 354.94 153.574 356.46 152.828 358.433C152.081 360.353 151.708 362.887 151.708 366.033C151.708 367.74 151.894 369.447 152.268 371.153C152.694 372.86 153.334 374.38 154.188 375.713C155.094 377.047 156.241 378.14 157.628 378.993C159.014 379.793 160.694 380.193 162.668 380.193C165.334 380.193 167.521 379.367 169.228 377.713C170.988 376.06 172.081 373.74 172.508 370.753H181.628C180.774 376.14 178.721 380.273 175.468 383.153C172.268 385.98 168.001 387.393 162.668 387.393C159.414 387.393 156.534 386.86 154.028 385.793C151.574 384.673 149.494 383.18 147.788 381.313C146.081 379.393 144.774 377.127 143.868 374.513C143.014 371.9 142.588 369.073 142.588 366.033C142.588 362.94 143.014 360.033 143.868 357.313C144.721 354.593 146.001 352.247 147.708 350.273C149.414 348.247 151.521 346.673 154.028 345.553C156.588 344.38 159.574 343.793 162.988 343.793C165.388 343.793 167.654 344.113 169.788 344.753C171.974 345.34 173.894 346.247 175.548 347.473C177.254 348.7 178.641 350.247 179.708 352.113C180.774 353.98 181.414 356.193 181.628 358.753H172.508ZM189.041 329.153H198.161V350.353H198.321C199.441 348.487 201.094 346.94 203.281 345.713C205.521 344.433 208.001 343.793 210.721 343.793C215.254 343.793 218.827 344.967 221.441 347.313C224.054 349.66 225.361 353.18 225.361 357.873V386.273H216.241V360.273C216.134 357.02 215.441 354.673 214.161 353.233C212.881 351.74 210.881 350.993 208.161 350.993C206.614 350.993 205.227 351.287 204.001 351.873C202.774 352.407 201.734 353.18 200.881 354.193C200.027 355.153 199.361 356.3 198.881 357.633C198.401 358.967 198.161 360.38 198.161 361.873V386.273H189.041V329.153ZM268.524 353.073H284.844C287.244 353.073 289.244 352.407 290.844 351.073C292.444 349.687 293.244 347.713 293.244 345.153C293.244 342.273 292.524 340.247 291.084 339.073C289.644 337.9 287.564 337.313 284.844 337.313H268.524V353.073ZM258.524 329.153H286.284C291.404 329.153 295.51 330.327 298.604 332.673C301.697 335.02 303.244 338.567 303.244 343.313C303.244 346.193 302.524 348.673 301.084 350.753C299.697 352.78 297.697 354.353 295.084 355.473V355.633C298.604 356.38 301.27 358.06 303.084 360.673C304.897 363.233 305.804 366.46 305.804 370.353C305.804 372.593 305.404 374.7 304.604 376.673C303.804 378.593 302.55 380.273 300.844 381.713C299.137 383.1 296.95 384.22 294.284 385.073C291.617 385.873 288.444 386.273 284.764 386.273H258.524V329.153ZM268.524 378.113H286.204C289.244 378.113 291.59 377.34 293.244 375.793C294.95 374.193 295.804 371.953 295.804 369.073C295.804 366.247 294.95 364.087 293.244 362.593C291.59 361.047 289.244 360.273 286.204 360.273H268.524V378.113ZM331.732 387.393C328.425 387.393 325.465 386.86 322.852 385.793C320.292 384.673 318.105 383.153 316.292 381.233C314.532 379.313 313.172 377.02 312.212 374.353C311.305 371.687 310.852 368.753 310.852 365.553C310.852 362.407 311.305 359.5 312.212 356.833C313.172 354.167 314.532 351.873 316.292 349.953C318.105 348.033 320.292 346.54 322.852 345.473C325.465 344.353 328.425 343.793 331.732 343.793C335.039 343.793 337.972 344.353 340.532 345.473C343.145 346.54 345.332 348.033 347.092 349.953C348.905 351.873 350.265 354.167 351.172 356.833C352.132 359.5 352.612 362.407 352.612 365.553C352.612 368.753 352.132 371.687 351.172 374.353C350.265 377.02 348.905 379.313 347.092 381.233C345.332 383.153 343.145 384.673 340.532 385.793C337.972 386.86 335.039 387.393 331.732 387.393ZM331.732 380.193C333.759 380.193 335.519 379.767 337.012 378.913C338.505 378.06 339.732 376.94 340.692 375.553C341.652 374.167 342.345 372.62 342.772 370.913C343.252 369.153 343.492 367.367 343.492 365.553C343.492 363.793 343.252 362.033 342.772 360.273C342.345 358.513 341.652 356.967 340.692 355.633C339.732 354.247 338.505 353.127 337.012 352.273C335.519 351.42 333.759 350.993 331.732 350.993C329.705 350.993 327.945 351.42 326.452 352.273C324.959 353.127 323.732 354.247 322.772 355.633C321.812 356.967 321.092 358.513 320.612 360.273C320.185 362.033 319.972 363.793 319.972 365.553C319.972 367.367 320.185 369.153 320.612 370.913C321.092 372.62 321.812 374.167 322.772 375.553C323.732 376.94 324.959 378.06 326.452 378.913C327.945 379.767 329.705 380.193 331.732 380.193ZM368.114 364.513L353.794 344.913H364.834L373.474 357.633L382.514 344.913H393.074L378.994 364.033L394.834 386.273H383.874L373.394 370.993L363.234 386.273H352.514L368.114 364.513Z" fill="white"/>
</svg>
