<svg width="405" height="406" viewBox="0 0 405 406" fill="none" xmlns="http://www.w3.org/2000/svg">
<path d="M309 79.2734L197 145.773V287.773L309 218.273V79.2734Z" fill="#F7BE4D"/>
<path d="M78 79.2734L190 145.773V287.773L78 218.273V79.2734Z" fill="#C0E7EE"/>
<path d="M74.5 217.273V73.0347L191 5.77344L307.5 73.0347V217.273L195 288.773L74.5 217.273Z" stroke="white" stroke-width="10"/>
<path d="M76.5 74.7734L193.583 144.273L306.166 79.2734" stroke="white" stroke-width="10"/>
<path d="M194 141.273L195 289.273" stroke="white" stroke-width="10"/>
<path d="M5.52 329.153H23.2L36.56 368.433H36.72L49.36 329.153H67.04V386.273H55.28V345.793H55.12L41.12 386.273H31.44L17.44 346.193H17.28V386.273H5.52V329.153ZM74.0181 357.633C74.1781 354.967 74.8448 352.753 76.0181 350.993C77.1915 349.233 78.6848 347.82 80.4981 346.753C82.3115 345.687 84.3381 344.94 86.5781 344.513C88.8715 344.033 91.1648 343.793 93.4581 343.793C95.5381 343.793 97.6448 343.953 99.7781 344.273C101.911 344.54 103.858 345.1 105.618 345.953C107.378 346.807 108.818 348.007 109.938 349.553C111.058 351.047 111.618 353.047 111.618 355.553V377.073C111.618 378.94 111.725 380.727 111.938 382.433C112.151 384.14 112.525 385.42 113.058 386.273H101.538C101.325 385.633 101.138 384.993 100.978 384.353C100.871 383.66 100.791 382.967 100.738 382.273C98.9248 384.14 96.7915 385.447 94.3381 386.193C91.8848 386.94 89.3781 387.313 86.8181 387.313C84.8448 387.313 83.0048 387.073 81.2981 386.593C79.5915 386.113 78.0981 385.367 76.8181 384.353C75.5381 383.34 74.5248 382.06 73.7781 380.513C73.0848 378.967 72.7381 377.127 72.7381 374.993C72.7381 372.647 73.1381 370.727 73.9381 369.233C74.7915 367.687 75.8581 366.46 77.1381 365.553C78.4715 364.647 79.9648 363.98 81.6181 363.553C83.3248 363.073 85.0315 362.7 86.7381 362.433C88.4448 362.167 90.1248 361.953 91.7781 361.793C93.4315 361.633 94.8981 361.393 96.1781 361.073C97.4581 360.753 98.4715 360.3 99.2181 359.713C99.9648 359.073 100.311 358.167 100.258 356.993C100.258 355.767 100.045 354.807 99.6181 354.113C99.2448 353.367 98.7115 352.807 98.0181 352.433C97.3781 352.007 96.6048 351.74 95.6981 351.633C94.8448 351.473 93.9115 351.393 92.8981 351.393C90.6581 351.393 88.8981 351.873 87.6181 352.833C86.3381 353.793 85.5915 355.393 85.3781 357.633H74.0181ZM100.258 366.033C99.7781 366.46 99.1648 366.807 98.4181 367.073C97.7248 367.287 96.9515 367.473 96.0981 367.633C95.2981 367.793 94.4448 367.927 93.5381 368.033C92.6315 368.14 91.7248 368.273 90.8181 368.433C89.9648 368.593 89.1115 368.807 88.2581 369.073C87.4581 369.34 86.7381 369.713 86.0981 370.193C85.5115 370.62 85.0315 371.18 84.6581 371.873C84.2848 372.567 84.0981 373.447 84.0981 374.513C84.0981 375.527 84.2848 376.38 84.6581 377.073C85.0315 377.767 85.5381 378.327 86.1781 378.753C86.8181 379.127 87.5648 379.393 88.4181 379.553C89.2715 379.713 90.1515 379.793 91.0581 379.793C93.2981 379.793 95.0315 379.42 96.2581 378.673C97.4848 377.927 98.3915 377.047 98.9781 376.033C99.5648 374.967 99.9115 373.9 100.018 372.833C100.178 371.767 100.258 370.913 100.258 370.273V366.033ZM134.836 344.913H143.156V352.513H134.836V372.993C134.836 374.913 135.156 376.193 135.796 376.833C136.436 377.473 137.716 377.793 139.636 377.793C140.276 377.793 140.889 377.767 141.476 377.713C142.062 377.66 142.622 377.58 143.156 377.473V386.273C142.196 386.433 141.129 386.54 139.956 386.593C138.782 386.647 137.636 386.673 136.516 386.673C134.756 386.673 133.076 386.54 131.476 386.273C129.929 386.06 128.542 385.607 127.316 384.913C126.142 384.22 125.209 383.233 124.516 381.953C123.822 380.673 123.476 378.993 123.476 376.913V352.513H116.596V344.913H123.476V332.513H134.836V344.913ZM176.721 359.473C175.974 354.727 173.174 352.353 168.321 352.353C166.507 352.353 164.987 352.78 163.761 353.633C162.534 354.433 161.521 355.5 160.721 356.833C159.974 358.113 159.441 359.553 159.121 361.153C158.801 362.7 158.641 364.247 158.641 365.793C158.641 367.287 158.801 368.807 159.121 370.353C159.441 371.9 159.947 373.313 160.641 374.593C161.387 375.82 162.374 376.833 163.601 377.633C164.827 378.433 166.321 378.833 168.081 378.833C170.801 378.833 172.881 378.087 174.321 376.593C175.814 375.047 176.747 372.993 177.121 370.433H188.081C187.334 375.927 185.201 380.113 181.681 382.993C178.161 385.873 173.654 387.313 168.161 387.313C165.067 387.313 162.214 386.807 159.601 385.793C157.041 384.727 154.854 383.26 153.041 381.393C151.227 379.527 149.814 377.313 148.801 374.753C147.787 372.14 147.281 369.287 147.281 366.193C147.281 362.993 147.734 360.033 148.641 357.313C149.601 354.54 150.987 352.167 152.801 350.193C154.614 348.167 156.827 346.593 159.441 345.473C162.054 344.353 165.041 343.793 168.401 343.793C170.854 343.793 173.201 344.113 175.441 344.753C177.734 345.393 179.761 346.38 181.521 347.713C183.334 348.993 184.801 350.62 185.921 352.593C187.041 354.513 187.681 356.807 187.841 359.473H176.721ZM194.498 329.153H205.858V350.673H206.098C207.538 348.273 209.378 346.54 211.618 345.473C213.858 344.353 216.045 343.793 218.178 343.793C221.218 343.793 223.698 344.22 225.618 345.073C227.591 345.873 229.138 347.02 230.258 348.513C231.378 349.953 232.151 351.74 232.578 353.873C233.058 355.953 233.298 358.273 233.298 360.833V386.273H221.938V362.913C221.938 359.5 221.405 356.967 220.338 355.313C219.271 353.607 217.378 352.753 214.658 352.753C211.565 352.753 209.325 353.687 207.938 355.553C206.551 357.367 205.858 360.38 205.858 364.593V386.273H194.498V329.153ZM277.946 352.273H290.666C292.906 352.273 294.746 351.74 296.186 350.673C297.626 349.607 298.346 347.873 298.346 345.473C298.346 344.14 298.106 343.047 297.626 342.193C297.146 341.34 296.506 340.673 295.706 340.193C294.906 339.713 293.972 339.393 292.906 339.233C291.892 339.02 290.826 338.913 289.706 338.913H277.946V352.273ZM265.386 329.153H292.266C294.986 329.153 297.466 329.393 299.706 329.873C301.946 330.353 303.866 331.153 305.466 332.273C307.066 333.34 308.292 334.78 309.146 336.593C310.052 338.407 310.506 340.647 310.506 343.313C310.506 346.193 309.839 348.593 308.506 350.513C307.226 352.433 305.306 354.007 302.746 355.233C306.266 356.247 308.879 358.033 310.586 360.593C312.346 363.1 313.226 366.14 313.226 369.713C313.226 372.593 312.666 375.1 311.546 377.233C310.426 379.313 308.906 381.02 306.986 382.353C305.119 383.687 302.959 384.673 300.506 385.313C298.106 385.953 295.626 386.273 293.066 386.273H265.386V329.153ZM277.946 376.513H291.386C292.612 376.513 293.786 376.407 294.906 376.193C296.026 375.927 297.012 375.527 297.866 374.993C298.719 374.407 299.386 373.633 299.866 372.673C300.399 371.713 300.666 370.487 300.666 368.993C300.666 366.06 299.839 363.98 298.186 362.753C296.532 361.473 294.346 360.833 291.626 360.833H277.946V376.513ZM329.794 365.633C329.794 367.287 329.954 368.913 330.274 370.513C330.594 372.06 331.127 373.473 331.874 374.753C332.674 375.98 333.714 376.967 334.994 377.713C336.274 378.46 337.874 378.833 339.794 378.833C341.714 378.833 343.314 378.46 344.594 377.713C345.927 376.967 346.967 375.98 347.714 374.753C348.514 373.473 349.074 372.06 349.394 370.513C349.714 368.913 349.874 367.287 349.874 365.633C349.874 363.98 349.714 362.353 349.394 360.753C349.074 359.153 348.514 357.74 347.714 356.513C346.967 355.287 345.927 354.3 344.594 353.553C343.314 352.753 341.714 352.353 339.794 352.353C337.874 352.353 336.274 352.753 334.994 353.553C333.714 354.3 332.674 355.287 331.874 356.513C331.127 357.74 330.594 359.153 330.274 360.753C329.954 362.353 329.794 363.98 329.794 365.633ZM318.434 365.633C318.434 362.327 318.94 359.34 319.954 356.673C320.967 353.953 322.407 351.66 324.274 349.793C326.14 347.873 328.38 346.407 330.994 345.393C333.607 344.327 336.54 343.793 339.794 343.793C343.047 343.793 345.98 344.327 348.594 345.393C351.26 346.407 353.527 347.873 355.394 349.793C357.26 351.66 358.7 353.953 359.714 356.673C360.727 359.34 361.234 362.327 361.234 365.633C361.234 368.94 360.727 371.927 359.714 374.593C358.7 377.26 357.26 379.553 355.394 381.473C353.527 383.34 351.26 384.78 348.594 385.793C345.98 386.807 343.047 387.313 339.794 387.313C336.54 387.313 333.607 386.807 330.994 385.793C328.38 384.78 326.14 383.34 324.274 381.473C322.407 379.553 320.967 377.26 319.954 374.593C318.94 371.927 318.434 368.94 318.434 365.633ZM375.98 364.513L362.38 344.913H375.34L382.62 355.713L389.82 344.913H402.38L388.78 364.273L404.06 386.273H391.1L382.46 373.233L373.82 386.273H361.1L375.98 364.513Z" fill="white"/>
</svg>
